:FULLY-SPECIFIED
:FORCE-ALL-JOINTS-BE-3DOF
:DEGREES
408
root 4.57775 16.22 -11.183 1.45438 -38.7739 -1.19403
lfemur -28.6753 7.14254 -10.3036
ltibia 45.6065 0 0
lfoot -11.909 14.4342 0
ltoes 1.45272 0 0
rfemur -42.3354 -26.1844 26.1901
rtibia 87.5212 0 0
rfoot 5.04092 -4.38647 0
rtoes 39.9351 0 0
lowerback 5.70526 4.72172 -0.911685
upperback 1.70135 6.17212 -2.31752
thorax -1.27007 3.07597 -2.27791
lowerneck -6.26733 2.47426 7.40188
upperneck 3.81565 2.65025 0.195295
head 2.41687 1.43718 -1.11244
lclavicle -1.66755e-13 -5.19042e-15 0
lhumerus -45.6522 -17.6926 94.179
lradius 51.3954 0 0
lwrist 19.5603 0 0
lhand -19.2918 2.76367 0
lfingers 7.12502 0 0
lthumb 7.02356 32.6275 0
rclavicle -1.66755e-13 -5.19042e-15 0
rhumerus -45.4148 10.1392 -91.5931
rradius 64.402 0 0
rwrist 7.85034 0 0
rhand -19.1879 -17.5621 0
rfingers 7.12502 0 0
rthumb 7.12373 -767.421 0
409
root 4.5258 16.1937 -11.0758 1.17836 -39.2128 -0.976688
lfemur -28.3301 7.77773 -10.4441
ltibia 46.3999 0 0
lfoot -12.7679 14.1299 0
ltoes 1.75843 0 0
rfemur -44.083 -26.2509 26.1231
rtibia 87.5151 0 0
rfoot 4.67512 -3.61129 0
rtoes 39.1217 0 0
lowerback 5.86915 4.71541 -0.941558
upperback 1.73473 6.15749 -2.37785
thorax -1.32246 3.068 -2.33499
lowerneck -6.26373 2.71594 7.57217
upperneck 3.85622 2.97534 -0.124397
head 2.45656 1.59351 -1.23287
lclavicle -1.64402e-13 -4.18433e-15 0
lhumerus -45.5994 -17.5218 94.1722
lradius 51.0999 0 0
lwrist 19.187 0 0
lhand -19.8167 2.3547 0
lfingers 7.12502 0 0
lthumb 6.51681 32.2344 0
rclavicle -1.64402e-13 -4.18433e-15 0
rhumerus -45.3674 9.96586 -91.356
rradius 64.8243 0 0
rwrist 7.98276 0 0
rhand -19.6959 -17.3201 0
rfingers 7.12502 0 0
rthumb 6.63329 -767.195 0
410
root 4.47187 16.167 -10.9714 0.946842 -39.5886 -0.822483
lfemur -28.0052 8.40394 -10.5155
ltibia 47.1879 0 0
lfoot -13.6605 13.776 0
ltoes 2.09972 0 0
rfemur -45.7189 -26.0773 26.0658
rtibia 87.0462 0 0
rfoot 4.11127 -2.60977 0
rtoes 37.8309 0 0
lowerback 6.02297 4.69646 -0.917345
upperback 1.77229 6.12878 -2.41621
thorax -1.3621 3.05324 -2.39745
lowerneck -6.25852 2.9626 7.75117
upperneck 3.89571 3.30773 -0.462109
head 2.49816 1.75303 -1.36049
lclavicle -1.57591e-13 -3.18287e-15 0
lhumerus -45.501 -17.363 94.1589
lradius 50.7535 0 0
lwrist 18.7118 0 0
lhand -20.3298 1.90888 0
lfingers 7.12502 0 0
lthumb 6.02141 31.8025 0
rclavicle -1.57591e-13 -3.18287e-15 0
rhumerus -45.2938 9.78681 -91.1063
rradius 65.2154 0 0
rwrist 8.15495 0 0
rhand -20.2641 -17.0397 0
rfingers 7.12502 0 0
rthumb 6.08472 -766.932 0
411
root 4.4154 16.1406 -10.8701 0.767211 -39.865 -0.740103
lfemur -27.7104 8.98902 -10.5117
ltibia 47.9567 0 0
lfoot -14.553 13.3805 0
ltoes 2.41078 0 0
rfemur -47.1637 -25.6626 25.9344
rtibia 86.1524 0 0
rfoot 3.46821 -1.52032 0
rtoes 36.183 0 0
lowerback 6.16496 4.66095 -0.842231
upperback 1.81144 6.08133 -2.43208
thorax -1.39175 3.02932 -2.4626
lowerneck -6.25392 3.20368 7.93237
upperneck 3.93349 3.63276 -0.802324
head 2.5402 1.90877 -1.48974
lclavicle -1.47867e-13 -2.0261e-15 0
lhumerus -45.3719 -17.2391 94.1495
lradius 50.3843 0 0
lwrist 18.176 0 0
lhand -20.8076 1.45781 0
lfingers 7.12502 0 0
lthumb 5.56012 31.3635 0
rclavicle -1.47867e-13 -2.0261e-15 0
rhumerus -45.2134 9.59019 -90.8508
rradius 65.5829 0 0
rwrist 8.36238 0 0
rhand -20.8846 -16.7714 0
rfingers 7.12502 0 0
rthumb 5.48568 -766.681 0
412
root 4.35579 16.1153 -10.7726 0.646856 -40.0058 -0.738235
lfemur -27.4558 9.50078 -10.4267
ltibia 48.6923 0 0
lfoot -15.4116 12.9511 0
ltoes 2.6258 0 0
rfemur -48.3379 -25.0057 25.6454
rtibia 84.8719 0 0
rfoot 2.86477 -0.481333 0
rtoes 34.2985 0 0
lowerback 6.29338 4.60499 -0.7194
upperback 1.84959 6.01046 -2.42494
thorax -1.41421 2.99385 -2.52777
lowerneck -6.25214 3.42861 8.10928
upperneck 3.96892 3.93579 -1.12952
head 2.58124 2.05378 -1.61504
lclavicle -1.36777e-13 -5.5405e-16 0
lhumerus -45.2269 -17.1728 94.1544
lradius 50.0205 0 0
lwrist 17.6211 0 0
lhand -21.2264 1.03313 0
lfingers 7.12502 0 0
lthumb 5.1557 30.9489 0
rclavicle -1.36777e-13 -5.5405e-16 0
rhumerus -45.1455 9.36418 -90.5964
rradius 65.9349 0 0
rwrist 8.60051 0 0
rhand -21.5493 -16.5654 0
rfingers 7.12502 0 0
rthumb 4.84386 -766.492 0
413
root 4.29247 16.0919 -10.6792 0.593162 -39.9748 -0.825565
lfemur -27.2511 9.90703 -10.2545
ltibia 49.3808 0 0
lfoot -16.2026 12.4956 0
ltoes 2.67899 0 0
rfemur -49.1621 -24.1054 25.1149
rtibia 83.2429 0 0
rfoot 2.41977 0.368764 0
rtoes 32.2978 0 0
lowerback 6.40646 4.52466 -0.552035
upperback 1.88416 5.91152 -2.39429
thorax -1.43223 2.94448 -2.59026
lowerneck -6.25539 3.62684 8.27539
upperneck 4.00138 4.20215 -1.42819
head 2.61983 2.18109 -1.73082
lclavicle -1.25868e-13 1.39323e-15 0
lhumerus -45.081 -17.1871 94.1838
lradius 49.6902 0 0
lwrist 17.0884 0 0
lhand -21.5628 0.666458 0
lfingers 7.12502 0 0
lthumb 4.83091 30.5903 0
rclavicle -1.25868e-13 1.39323e-15 0
rhumerus -45.1093 9.09693 -90.3496
rradius 66.2789 0 0
rwrist 8.8648 0 0
rhand -22.2504 -16.4719 0
rfingers 7.12502 0 0
rthumb 4.16694 -766.413 0
414
root 4.22485 16.0713 -10.5906 0.613516 -39.7359 -1.01078
lfemur -27.1063 10.1756 -9.98912
ltibia 50.0085 0 0
lfoot -16.8922 12.0217 0
ltoes 2.50452 0 0
rfemur -49.5569 -22.9608 24.2594
rtibia 81.3034 0 0
rfoot 2.25205 0.891562 0
rtoes 30.3013 0 0
lowerback 6.50247 4.41607 -0.343322
upperback 1.91256 5.77983 -2.33959
thorax -1.44861 2.87881 -2.64741
lowerneck -6.2659 3.78781 8.4242
upperneck 4.03023 4.41718 -1.68281
head 2.65452 2.28374 -1.83151
lclavicle -1.16687e-13 3.97569e-15 0
lhumerus -44.949 -17.3046 94.2481
lradius 49.4217 0 0
lwrist 16.6193 0 0
lhand -21.7931 0.389413 0
lfingers 7.12502 0 0
lthumb 4.60852 30.3193 0
rclavicle -1.16687e-13 3.97569e-15 0
rhumerus -45.1241 8.77662 -90.1173
rradius 66.623 0 0
rwrist 9.1507 0 0
rhand -22.9798 -16.5412 0
rfingers 7.12502 0 0
rthumb 3.4626 -766.493 0
415
root 4.1539 16.0561 -10.5075 0.740605 -39.2875 -1.3279
lfemur -27.0055 10.2833 -9.60902
ltibia 50.5442 0 0
lfoot -17.4506 11.5269 0
ltoes 2.09781 0 0
rfemur -49.4814 -21.5442 23.0229
rtibia 78.853 0 0
rfoot 2.45723 1.0508 0
rtoes 28.5199 0 0
lowerback 6.58517 4.26968 -0.0592892
upperback 1.93718 5.60544 -2.25176
thorax -1.46124 2.79197 -2.70784
lowerneck -6.28463 3.91811 8.56506
upperneck 4.0523 4.58978 -1.90843
head 2.68636 2.36575 -1.92346
lclavicle -1.08358e-13 7.9537e-15 0
lhumerus -44.8218 -17.526 94.3501
lradius 49.195 0 0
lwrist 16.206 0 0
lhand -21.9048 0.220666 0
lfingers 7.12502 0 0
lthumb 4.50071 30.154 0
rclavicle -1.08358e-13 7.9537e-15 0
rhumerus -45.1795 8.40278 -89.8898
rradius 66.9713 0 0
rwrist 9.49052 0 0
rhand -23.7693 -16.7791 0
rfingers 7.12502 0 0
rthumb 2.70017 -766.739 0
416
root 4.08047 16.0465 -10.4296 0.978758 -38.6613 -1.78053
lfemur -26.9347 10.2508 -9.11242
ltibia 50.9898 0 0
lfoot -17.898 11.0035 0
ltoes 1.51582 0 0
rfemur -48.9925 -19.8474 21.4614
rtibia 75.7912 0 0
rfoot 2.96156 0.957412 0
rtoes 26.917 0 0
lowerback 6.65739 4.08579 0.314217
upperback 1.96114 5.38917 -2.12821
thorax -1.46696 2.68443 -2.77683
lowerneck -6.30994 4.02932 8.70687
upperneck 4.0671 4.73594 -2.12385
head 2.71698 2.43466 -2.01372
lclavicle -9.92162e-14 1.34385e-14 0
lhumerus -44.6833 -17.8313 94.4814
lradius 48.9785 0 0
lwrist 15.8092 0 0
lhand -21.9145 0.138332 0
lfingers 7.12502 0 0
lthumb 4.49131 30.0724 0
rclavicle -9.92162e-14 1.34385e-14 0
rhumerus -45.2549 7.98576 -89.6579
rradius 67.3182 0 0
rwrist 9.89907 0 0
rhand -24.6365 -17.1427 0
rfingers 7.12502 0 0
rthumb 1.86259 -767.109 0
